<?xml version="1.0" encoding="utf-8"?>
<!-- Generator: Adobe Illustrator 22.0.1, SVG Export Plug-In . SVG Version: 6.00 Build 0)  -->
<svg version="1.1" id="Layer_1" xmlns="http://www.w3.org/2000/svg" xmlns:xlink="http://www.w3.org/1999/xlink" x="0px" y="0px"
	 viewBox="0 0 187 80" style="enable-background:new 0 0 187 80;" xml:space="preserve">
<style type="text/css">
	.st0{fill:#FFFFFF;}
	.st1{fill:#1F2555;}
</style>
<symbol  id="nav-header_2" viewBox="-368.1 -5.2 38.6 10.6">
	<g>
		<path class="st0" d="M-360.4,1.6c0-2.2-1.8-3.4-4-3.4h-1.6v-3h-2.1V5h3.9C-361.8,5-360.4,3.6-360.4,1.6z M-364.3,3h-1.6V0h1.7
			c1.1,0,1.7,0.6,1.7,1.5C-362.6,2.5-363.3,3-364.3,3z M-356.7-2.9h5.3v-1.9h-7.4V5h7.4V3h-5.2V1h4.2v-1.9h-4.2L-356.7-2.9
			L-356.7-2.9z M-344.9,5.4c1.8,0,3-0.7,3.6-1.3l-1.1-1.5c-0.4,0.3-0.7,0.5-1.1,0.6s-0.8,0.2-1.3,0.2c-1,0-1.8-0.3-2.4-0.9
			s-0.9-1.4-0.9-2.4s0.3-1.8,0.9-2.4c0.6-0.5,1.3-0.8,2.2-0.8s1.6,0.2,2.1,0.5v1.8h-2.2V1h4.3v-4.5l-0.1-0.1c-1-1-2.3-1.6-4.1-1.6
			c-1.5,0-2.7,0.6-3.8,1.5c-1,1-1.6,2.2-1.6,3.7s0.6,2.7,1.6,3.8C-347.6,4.9-346.4,5.4-344.9,5.4z M-333.6,5l4.1-9.8h-2.3l-0.9,2.2
			h-4.1l-0.9-2.2h-2.2l4.2,9.8H-333.6z M-333.4-0.7l-1.3,3.2l-1.3-3.2C-336-0.7-333.4-0.7-333.4-0.7z M-330.3,4.3
			c0-0.4-0.3-0.7-0.7-0.7s-0.7,0.3-0.7,0.7S-331.4,5-331,5S-330.3,4.6-330.3,4.3z M-331.1,4.9c-0.4,0-0.6-0.3-0.6-0.6
			c0-0.4,0.2-0.7,0.6-0.7s0.6,0.3,0.6,0.7C-330.5,4.6-330.7,4.9-331.1,4.9z M-331.3,3.8v0.9h0.2c0.1,0,0.2-0.1,0.3-0.1
			c0.1-0.1,0.1-0.1,0.1-0.2s0-0.1-0.1-0.2l-0.1-0.1l0.3-0.4h-0.2L-331,4h-0.1V3.8H-331.3z M-331.2,4.3L-331.2,4.3
			c0.2,0,0.2,0,0.2,0.1l0.1,0.1l-0.1,0.1c-0.1,0.1-0.1,0.1-0.1,0.1h-0.1V4.3z"/>
	</g>
</symbol>
<path class="st1" d="M0,0v80h187l-0.1-80H0z"/>
<use xlink:href="#nav-header_2"  width="38.6" height="10.6" id="XMLID_24_" x="-368.1" y="-5.2" transform="matrix(2 0 0 -2 791.1 40.2)" style="overflow:visible;"/>
</svg>
